<svg
   width="98.622169mm"
   height="98.268173mm"
   viewBox="0 0 98.622169 98.268173"
   version="1.1"
   id="svg1"
   inkscape:export-filename="calculate_icon.svg"
   inkscape:export-xdpi="96"
   inkscape:export-ydpi="96"
   xmlns:inkscape="http://www.inkscape.org/namespaces/inkscape"
   xmlns:sodipodi="http://sodipodi.sourceforge.net/DTD/sodipodi-0.dtd"
   xmlns="http://www.w3.org/2000/svg"
   xmlns:svg="http://www.w3.org/2000/svg">
  <sodipodi:namedview
     id="namedview1"
     pagecolor="#ffffff"
     bordercolor="#000000"
     borderopacity="0.25"
     inkscape:showpageshadow="2"
     inkscape:pageopacity="0.0"
     inkscape:pagecheckerboard="0"
     inkscape:deskcolor="#d1d1d1"
     inkscape:document-units="mm" />
  <defs
     id="defs1" />
  <g
     inkscape:label="Layer 1"
     inkscape:groupmode="layer"
     id="layer1"
     transform="translate(-99.719907,-48.390943)">
    <g
       id="g3"
       transform="translate(47.789035,6.0178784)"
       inkscape:export-filename=".\g3.svg"
       inkscape:export-xdpi="96"
       inkscape:export-ydpi="96">
      <path
         style="fill:none;stroke:#000000;stroke-width:8;stroke-linecap:round;stroke-linejoin:round;stroke-dasharray:none;paint-order:stroke fill markers"
         d="M 55.930868,46.373063 V 136.64124 H 146.55304"
         id="path1" />
      <path
         style="fill:none;stroke:#000000;stroke-width:7.99999;stroke-linecap:round;stroke-linejoin:round;stroke-dasharray:none;paint-order:stroke fill markers"
         d="M 56.638856,123.5435 H 73.630511 V 50.974968 L 97.702025,80.002382 V 58.054827 L 123.18951,76.816446 V 59.824791 l 19.8236,11.327772"
         id="path2"
         sodipodi:nodetypes="cccccccc" />
      <path
         id="path3"
         style="stroke:#000000;stroke-width:0;stroke-linecap:round;stroke-linejoin:round;paint-order:stroke fill markers"
         d="m 94.870086,95.047081 a 4.4249105,4.4249105 0 0 1 -4.424911,4.424911 4.4249105,4.4249105 0 0 1 -4.42491,-4.424911 4.4249105,4.4249105 0 0 1 4.42491,-4.424911 4.4249105,4.4249105 0 0 1 4.424911,4.424911 z" />
      <path
         id="path3-6"
         style="stroke:#000000;stroke-width:0;stroke-linecap:round;stroke-linejoin:round;paint-order:stroke fill markers"
         d="m 144.58644,55.329102 a 4.4249105,4.4249105 0 0 1 -4.42491,4.42491 4.4249105,4.4249105 0 0 1 -4.42491,-4.42491 4.4249105,4.4249105 0 0 1 4.42491,-4.424911 4.4249105,4.4249105 0 0 1 4.42491,4.424911 z" />
      <path
         id="path3-6-5"
         style="stroke:#000000;stroke-width:0;stroke-linecap:round;stroke-linejoin:round;paint-order:stroke fill markers"
         d="m 91.396384,49.471817 a 4.4249105,4.4249105 0 0 1 -4.42491,4.424911 4.4249105,4.4249105 0 0 1 -4.424911,-4.424911 4.4249105,4.4249105 0 0 1 4.424911,-4.424911 4.4249105,4.4249105 0 0 1 4.42491,4.424911 z" />
      <path
         id="path3-6-5-2"
         style="stroke:#000000;stroke-width:0;stroke-linecap:round;stroke-linejoin:round;paint-order:stroke fill markers"
         d="m 129.27361,87.485847 a 4.4249105,4.4249105 0 0 1 -4.42491,4.424911 4.4249105,4.4249105 0 0 1 -4.42491,-4.424911 4.4249105,4.4249105 0 0 1 4.42491,-4.42491 4.4249105,4.4249105 0 0 1 4.42491,4.42491 z" />
    </g>
  </g>
</svg>
