<svg width="479.21005" height="402.41602" viewBox="0 0 126.79099 106.47257" xmlns="http://www.w3.org/2000/svg">
  <g transform="translate(-78.718749,-59.976185)">
    <g id="g46" inkscape:export-filename="g46.svg" inkscape:export-xdpi="96" inkscape:export-ydpi="96">
      <path id="path24" style="stroke-width:6.3103;stroke-linecap:round"
         d="m 95.044326,59.976183 a 4.5998158,4.5998158 0 0 0 -4.599719,4.599719 4.5998158,4.5998158 0 0 0 4.599719,4.59972 4.5998158,4.5998158 0 0 0 4.600236,-4.59972 4.5998158,4.5998158 0 0 0 -4.600236,-4.599719 z m 33.026404,0 a 4.5998158,4.5998158 0 0 0 -4.59972,4.599719 4.5998158,4.5998158 0 0 0 1.83503,3.518132 11.907441,11.907441 0 0 1 4.00855,-1.60197 11.907441,11.907441 0 0 1 2.87992,-0.140043 4.5998158,4.5998158 0 0 0 0.47594,-1.776119 4.5998158,4.5998158 0 0 0 -4.59972,-4.599719 z m 33.02641,0 a 4.5998158,4.5998158 0 0 0 -4.59972,4.599719 4.5998158,4.5998158 0 0 0 4.59972,4.59972 4.5998158,4.5998158 0 0 0 4.59972,-4.59972 4.5998158,4.5998158 0 0 0 -4.59972,-4.599719 z m 33.02641,0 a 4.5998158,4.5998158 0 0 0 -4.59972,4.599719 4.5998158,4.5998158 0 0 0 4.59972,4.59972 4.5998158,4.5998158 0 0 0 4.59972,-4.59972 4.5998158,4.5998158 0 0 0 -4.59972,-4.599719 z M 95.044326,84.294078 a 4.5998158,4.5998158 0 0 0 -4.599719,4.59972 4.5998158,4.5998158 0 0 0 4.599719,4.600236 4.5998158,4.5998158 0 0 0 4.600236,-4.600236 4.5998158,4.5998158 0 0 0 -4.600236,-4.59972 z m 99.079224,24.318412 a 4.5998158,4.5998158 0 0 0 -4.59972,4.59972 4.5998158,4.5998158 0 0 0 4.59972,4.59972 4.5998158,4.5998158 0 0 0 4.59972,-4.59972 4.5998158,4.5998158 0 0 0 -4.59972,-4.59972 z m -33.62741,0.16123 a 4.5998158,4.5998158 0 0 0 -3.99872,4.43849 4.5998158,4.5998158 0 0 0 4.59972,4.59972 4.5998158,4.5998158 0 0 0 4.59972,-4.59972 4.5998158,4.5998158 0 0 0 -0.29197,-1.60455 z m -68.175678,0.87953 a 4.5998158,4.5998158 0 0 0 -1.875855,3.55896 4.5998158,4.5998158 0 0 0 1.875855,3.55947 z m 35.750268,23.27765 a 4.5998158,4.5998158 0 0 0 -4.59972,4.59972 4.5998158,4.5998158 0 0 0 4.59972,4.59972 4.5998158,4.5998158 0 0 0 4.59972,-4.59972 4.5998158,4.5998158 0 0 0 -4.59972,-4.59972 z m 33.02641,0 a 4.5998158,4.5998158 0 0 0 -0.65474,0.047 4.5998158,4.5998158 0 0 0 -3.94498,4.55269 4.5998158,4.5998158 0 0 0 4.59972,4.59972 4.5998158,4.5998158 0 0 0 4.59972,-4.59972 4.5998158,4.5998158 0 0 0 -4.59972,-4.59972 z m 33.02641,0 a 4.5998158,4.5998158 0 0 0 -4.59972,4.59972 4.5998158,4.5998158 0 0 0 4.59972,4.59972 4.5998158,4.5998158 0 0 0 4.59972,-4.59972 4.5998158,4.5998158 0 0 0 -4.59972,-4.59972 z m -101.803088,1.04025 a 4.5998158,4.5998158 0 0 0 -1.875855,3.55947 4.5998158,4.5998158 0 0 0 1.438155,3.12177 h 0.4377 z m 35.750268,23.27765 a 4.5998158,4.5998158 0 0 0 -4.59972,4.60023 4.5998158,4.5998158 0 0 0 3.94498,4.5527 4.5998158,4.5998158 0 0 0 0.65474,0.047 4.5998158,4.5998158 0 0 0 4.59972,-4.59972 4.5998158,4.5998158 0 0 0 -4.59972,-4.60023 z m 33.02641,0 a 4.5998158,4.5998158 0 0 0 -4.55321,3.94549 4.5998158,4.5998158 0 0 0 -0.0465,0.65474 4.5998158,4.5998158 0 0 0 4.59972,4.59972 4.5998158,4.5998158 0 0 0 4.59972,-4.59972 4.5998158,4.5998158 0 0 0 -4.59972,-4.60023 z m 33.02641,0 a 4.5998158,4.5998158 0 0 0 -4.59972,4.60023 4.5998158,4.5998158 0 0 0 3.94498,4.5527 4.5998158,4.5998158 0 0 0 0.65474,0.047 4.5998158,4.5998158 0 0 0 4.59972,-4.59972 4.5998158,4.5998158 0 0 0 -4.59972,-4.60023 z m -102.746183,7.21609 a 4.5998158,4.5998158 0 0 0 3.666959,1.98386 4.5998158,4.5998158 0 0 0 3.667477,-1.98386 z"
         inkscape:label="path24" />
      <path style="color:currentColor;fill:currentColor;stroke-linecap:round;stroke-linejoin:round;-inkscape-stroke:none"
         d="m 128.40625,73.060547 a 5.9536955,5.9536955 0 0 0 -2.97852,5.15625 v 32.851563 l -18.2246,-10.52148 a 5.9536955,5.9536955 0 0 0 -8.929693,5.15625 v 40.90234 H 84.671875 a 5.9531002,5.9531002 0 0 0 -5.953125,5.95312 5.9531002,5.9531002 0 0 0 5.953125,5.95313 h 19.554685 a 5.9536955,5.9536955 0 0 0 5.95313,-5.95313 v -36.54492 l 18.22461,10.52149 a 5.9536955,5.9536955 0 0 0 8.92968,-5.1543 V 88.527344 l 36.75782,21.220706 a 5.9536955,5.9536955 0 0 0 8.92968,-5.1543 V 92.033203 l 13.5586,7.828125 a 5.9531002,5.9531002 0 0 0 8.13281,-2.179687 5.9531002,5.9531002 0 0 0 -2.17969,-8.13086 L 180.04492,76.566406 a 5.9536955,5.9536955 0 0 0 -8.92969,5.154297 V 94.28125 L 134.35742,73.060547 a 5.9536955,5.9536955 0 0 0 -5.95117,0 z"
         id="path1" /></g>
  </g>
</svg>
