<svg
  width="327.79102" height="465.59766" viewBox="0 0 86.728039 123.18938" version="1.1" id="svg1" xmlns="http://www.w3.org/2000/svg">
  <sodipodi:namedview id="namedview1" pagecolor="#ffffff" bordercolor="#000000" borderopacity="0.25" inkscape:showpageshadow="2" inkscape:pageopacity="0.0" inkscape:pagecheckerboard="0" inkscape:deskcolor="#d1d1d1" inkscape:document-units="px" />
  <defs id="defs1"/>
  <g inkscape:label="Layer 1" inkscape:groupmode="layer" id="layer1" transform="translate(-91.684325,-37.877274)">
    <path
      d="m 135.04809,37.877274 c 3.70623,40.727559 -43.363767,53.677828 -43.363765,78.409166 2e-6,24.73134 19.414445,44.78021 43.363765,44.78021 23.94931,0 43.36427,-20.04887 43.36427,-44.78021 0,-24.731342 -23.70665,-43.438753 -43.36427,-78.409166 z m -9.01651,75.012996 a 17.396597,16.645664 0 0 1 17.39636,16.64549 17.396597,16.645664 0 0 1 -17.39636,16.6455 17.396597,16.645664 0 0 1 -17.39687,-16.6455 17.396597,16.645664 0 0 1 17.39687,-16.64549 z"
      style="stroke:currentColor;stroke-width:0;stroke-linecap:round;stroke-linejoin:round;paint-order:stroke fill markers"
      id="path3" />
  </g>
</svg>
