<svg width="389.00003" height="389" viewBox="0 0 102.92292 102.92291" version="1.1" id="svg1" xmlns="http://www.w3.org/2000/svg">
  <g id="layer1" transform="translate(-101.80102,-49.305001)">
    <path
       d="m 148.49998,64.981562 a 40.018227,40.018227 0 0 0 -40.01823,40.018228 40.018227,40.018227 0 0 0 40.01823,40.01823 40.018227,40.018227 0 0 0 40.01823,-40.01823 40.018227,40.018227 0 0 0 -40.01823,-40.018228 z m -10.44123,22.099943 c 1.93238,0.07825 3.88476,0.896044 5.40536,2.434994 l 5.09788,5.159374 5.17591,-5.114416 c 3.0779,-3.041191 7.84037,-3.169905 10.67842,-0.288354 2.83805,2.88155 2.64537,7.649629 -0.43253,10.69082 l -5.15938,5.097877 5.11442,5.17591 c 3.04119,3.0779 3.16939,7.84089 0.28784,10.67894 -2.88155,2.83805 -7.64963,2.64485 -10.69082,-0.43305 l -5.09788,-5.15937 -5.17592,5.11441 c -3.07789,3.04119 -7.84036,3.16939 -10.67841,0.28784 -2.83805,-2.88155 -2.64537,-7.64963 0.43253,-10.69082 l 5.15937,-5.09788 -5.1139,-5.175912 c -3.04119,-3.077898 -3.1699,-7.840367 -0.28835,-10.678418 1.44077,-1.419025 3.35309,-2.080198 5.28546,-2.001945 z"
       style="display:none;stroke:#808080;stroke-width:0;stroke-linecap:round;stroke-linejoin:round;paint-order:stroke fill markers"
       id="path18" />
  </g>
  <g
     id="layer2"
     transform="translate(-101.80102,-49.305001)">
    <path
       d="m 153.26248,49.305 a 51.461456,51.461456 0 0 0 -51.46146,51.46146 51.461456,51.461456 0 0 0 51.46146,51.46146 51.461456,51.461456 0 0 0 51.46146,-51.46146 A 51.461456,51.461456 0 0 0 153.26248,49.305 Z m 0,16.007292 a 10.31875,10.31875 0 0 1 10.31875,10.31875 10.31875,10.31875 0 0 1 -10.31875,10.31875 10.31875,10.31875 0 0 1 -10.31875,-10.31875 10.31875,10.31875 0 0 1 10.31875,-10.31875 z m -12.83229,27.516666 h 10.05416 c 0.29142,0 0.5783,0.01826 0.86093,0.05013 0.28388,-0.031 0.57163,-0.05013 0.86403,-0.05013 h 2.10633 c 4.32693,0 7.81038,3.483449 7.81038,7.810382 v 20.50004 h 3.96875 c 4.17749,0 7.54062,3.36312 7.54062,7.54062 0,4.1775 -3.36313,7.54063 -7.54062,7.54063 h -11.77913 -2.10633 -11.77912 c -4.17751,0 -7.54063,-3.36313 -7.54063,-7.54063 0,-4.1775 3.36312,-7.54062 7.54063,-7.54062 h 3.96875 v -13.22917 h -3.96875 c -4.17751,0 -7.54063,-3.36313 -7.54063,-7.54062 0,-4.177513 3.36312,-7.540632 7.54063,-7.540632 z"
       style="stroke:#808080;stroke-width:0;stroke-linecap:round;stroke-linejoin:round;paint-order:stroke fill markers"
       id="path20" />
  </g>
</svg>
