<?xml version="1.0" standalone="no"?>
<!DOCTYPE svg PUBLIC "-//W3C//DTD SVG 20010904//EN" "http://www.w3.org/TR/2001/REC-SVG-20010904/DTD/svg10.dtd">
<!-- Created using Krita: http://krita.org -->
<svg xmlns="http://www.w3.org/2000/svg"
    xmlns:xlink="http://www.w3.org/1999/xlink"
    xmlns:krita="http://krita.org/namespaces/svg/krita"
    xmlns:sodipodi="http://sodipodi.sourceforge.net/DTD/sodipodi-0.dtd"
    width="240pt"
    height="240pt"
    viewBox="0 0 240 240">
<defs/>
<g id="group0" transform="matrix(1.095130494293 0 0 1.095130494293 10.439999661795 12.198688268509)" fill="#004661">
  <path id="shape0" fill="none" stroke="#004661" stroke-width="14.4" stroke-linecap="square" stroke-linejoin="bevel" d="M0.728503 3.40449C-3.86982 1.76249 14.6062 4.82533 19.6413 4.69585C31.4008 4.39347 43.1635 5.09021 54.9434 4.55113C84.5208 3.19759 138.47 -6.1094 165.649 6.61063C182.093 14.3065 190.925 31.8131 195.348 48.591C198.183 59.3446 196.488 195.014 195.447 196.107C194.18 197.438 187.494 197.688 187.494 195.305C187.494 157.323 199.887 55.8535 179.738 25.4133C152.687 -15.4529 40.8019 24.0136 6.18339 6.20986"/>
  <path id="shape1" transform="translate(80.2263960399234, 8.44484571406953)" fill="none" stroke="#004661" stroke-width="14.4" stroke-linecap="square" stroke-linejoin="bevel" d="M0 0.191888C0 30.5456 16.9456 31.3467 14.4598 2.26252C14.4223 1.82434 14.4997 -0.963458 13.3342 0.347742"/>
  <path id="shape2" transform="translate(11.1755046856612, 30.9244527611282)" fill="none" stroke="#004661" stroke-width="14.4" stroke-linecap="square" stroke-linejoin="bevel" d="M9.31872 2.81044C25.2105 3.92152 119.704 -4.56919 142.29 3.56177C142.496 3.63591 142.668 3.95793 142.748 4.17406C148.509 19.731 144.071 50.9219 144.071 67.6623C148.933 175.712 6.64003 175.519 0.0298485 72.6607C-0.378826 56.8451 3.47405 23.4242 7.5999 4.44124"/>
  <path id="shape3" transform="translate(79.0330609541826, 180.586464520799)" fill="none" stroke="#004661" stroke-width="14.4" stroke-linecap="square" stroke-linejoin="bevel" d="M0.809885 0.669671C-1.31078 -1.23893 1.40361 6.35518 1.40361 9.20824C1.40361 19.3916 4.21312 18.2174 12.6845 19.361C19.6893 20.3067 18.0595 13.804 17.1622 8.15066C15.8647 -0.0232577 12.2726 -4.75985 10.2848 7.31573C10.0077 8.999 10.0569 16.3283 9.55502 12.715"/>
  <path id="shape4" transform="translate(59.1710801336503, 57.2697039727552)" fill="none" stroke="#004661" stroke-width="14.4" stroke-linecap="square" stroke-linejoin="bevel" d="M6.9295 4.914C9.38987 2.51248 18.9095 1.17063 24.1105 1.02878C36.2156 3.98786 90.0695 -8.25227 89.73 11.8495C91.8254 33.606 11.7834 24.507 7.3748 25.3865C4.82197 21.264 -1.20425 6.29218 0.21294 5.96045"/>
  <path id="shape5" transform="translate(64.1711276054192, 87.0047014263556)" fill="none" stroke="#004661" stroke-width="14.4" stroke-linecap="square" stroke-linejoin="bevel" d="M4.10646 1.41813C8.30577 -0.471555 15.9852 -0.264773 20.669 0.828113C23.8159 1.56239 26.9741 1.1036 30.0821 1.66304C32.2945 2.06127 34.5599 2.36636 36.8111 2.18627C43.5194 1.6496 50.0919 3.82274 56.8123 3.82274C66.9861 3.82274 85.7031 -3.50134 83.5301 15.0776C83.1076 18.6905 84.3582 23.1385 81.1429 24.8408C66.5545 28.3129 14.9508 27.4511 4.10646 24.4734C-6.20262 17.3039 6.61746 0.17465 2.82005 1.58512"/>
  <path id="shape6" transform="translate(66.9095500553476, 113.68521273775)" fill="none" stroke="#004661" stroke-width="14.4" stroke-linecap="square" stroke-linejoin="bevel" d="M17.5719 1.15487C9.81046 -5.83043 -6.07722 20.8672 2.44418 27.8393C15.0544 35.009 80.796 31.0848 82.6719 17.0742C82.1336 -1.23583 11.1398 6.11808 6.78582 6.1088"/>
  <path id="shape7" transform="translate(16.1519593946535, 38.4512961369718)" fill="none" stroke="#004661" stroke-width="14.4" stroke-linecap="square" stroke-linejoin="bevel" d="M11.7273 7.64605C11.5581 8.10291 18.6267 4.528 20.2127 4.40652C26.9786 3.88828 33.8591 4.76813 40.6592 4.35085C53.2709 3.57696 131.87 -5.47757 134.357 5.07446C139.106 25.2214 49.7528 -8.48887 37.4432 18.3332C36.9884 19.3242 36.6631 20.4855 36.4289 21.5393C35.2102 27.0236 40.8571 34.7015 40.8571 40.7984C40.8571 48.069 44.4792 109.755 48.5261 111.868C70.1423 123.151 97.5725 122.115 117.733 109.641C117.912 109.53 121.901 107.271 121.901 107.782C121.901 130.843 49.3459 133.932 36.9361 125.316C11.5993 107.725 -18.3026 15.9462 14.3001 10.7297C57.6077 3.80052 20.687 96.4762 51.9277 121.809C53.5904 123.157 72.8927 128.721 73.9081 126.284C74.9465 123.792 64.74 123.786 64.0868 123.813C53.6261 124.251 44.2205 122.539 36.7629 114.417C17.3636 93.2913 2.62192 59.6511 10.6512 30.7458C25.9008 -24.1528 36.7946 90.7269 36.9608 93.0206C37.0298 93.973 38.0407 99.9521 36.5773 100.446C32.1022 101.956 29.5966 86.943 29.2052 84.9385C25.803 67.5132 16.0145 49.1734 16.1926 31.2134C16.3497 15.3831 25.038 26.1815 19.4705 26.1815"/>
  <path id="shape8" transform="translate(146.056143370496, 82.5842088246353)" fill="none" stroke="#004661" stroke-width="14.4" stroke-linecap="square" stroke-linejoin="bevel" d="M0 0.962621C0 -0.855679 7.17111 0.350812 5.45489 0.951489"/>
 </g>
</svg>
