<svg
   width="533.44537"
   height="533.44727"
   viewBox="0 0 141.14075 141.14125"
   xmlns="http://www.w3.org/2000/svg">
  <g inkscape:label="Layer 1" inkscape:groupmode="layer" id="layer1" transform="translate(-77.929611,-34.429421)">
    <path id="path3" style="opacity:1;stroke-width:2.87398;stroke-linecap:round"
       d="m 82.936539,34.429423 c -2.765208,0 -5.00693,2.241722 -5.00693,5.006929 0,0 1.612995,30.850038 1.5875,46.288647 -0.02326,14.082493 -1.5875,42.217581 -1.5875,42.217581 0,3.90419 2.829291,8.48783 6.335531,10.20506 10.544236,5.16419 21.96499,10.51658 32.90238,15.69 3.87008,1.83055 10.47454,3.34335 14.75621,3.3693 l 3.46284,0.0212 c -0.0504,0.32535 -0.0842,0.65641 -0.0842,0.99632 v 10.92595 c 0,3.55663 2.86314,6.42028 6.41977,6.42028 h 13.55576 c 3.55663,0 6.41976,-2.86365 6.41976,-6.42028 v -10.92595 c 0,-0.28468 -0.0244,-0.56299 -0.0599,-0.83768 l 0.47594,0.003 c 4.28453,0.026 10.80917,-1.61827 14.68385,-3.44578 11.90465,-5.61486 25.03412,-10.14772 36.59932,-16.08842 3.1808,-1.63388 5.67356,-6.01922 5.67356,-9.5958 0,0 -1.31418,-28.349701 -1.32292,-42.534871 -0.009,-14.77019 1.32292,-44.290836 1.32292,-44.290836 0,-3.868588 -3.13616,-7.00474 -7.00474,-7.00474 0,0 -43.46337,2.654897 -65.22186,2.645833 -21.32066,-0.0089 -63.907211,-2.645833 -63.907211,-2.645833 z m 9.381339,9.666076 c 0,0 35.799722,2.613666 53.732122,2.645833 19.34171,0.0347 57.96493,-2.645833 57.96493,-2.645833 2.18702,-0.09983 3.9641,1.774798 3.9641,3.964099 0,0 -1.32697,24.92609 -1.32291,37.400817 0.004,12.249043 1.32291,36.723335 1.32291,36.723335 0.12832,3.56206 -2.60222,7.7104 -5.82548,9.232 -9.60433,4.53389 -19.37473,8.93666 -29.07574,13.35474 -3.62805,1.65231 -9.79763,2.98059 -13.78469,2.95641 l -23.69985,-0.14366 c -4.19646,-0.0254 -10.66872,-1.51114 -14.45751,-3.31556 -9.61387,-4.57863 -19.234,-9.14475 -28.844754,-13.72991 -1.80632,-0.86177 -3.270084,-3.18384 -3.270084,-5.18522 0,0 1.592746,-26.23124 1.5875,-39.362968 -0.0051,-12.876607 -1.5875,-38.597127 -1.5875,-38.597127 -0.07483,-1.819262 1.476156,-3.296956 3.296956,-3.296956 z m 33.779852,40.690539 c -9.19329,0.165611 -26.549803,7.483781 -26.549803,7.483781 v 26.433011 c 0,2.39567 1.739753,5.20071 3.892273,6.25233 7.91512,3.86695 15.91373,7.6274 23.88484,11.40654 2.37509,1.12604 6.43019,2.05529 9.05888,2.07119 l 20.92689,0.12661 c 3.32131,0.0201 8.38028,-1.2529 11.39103,-2.6541 8.31622,-3.87032 17.43374,-7.02957 25.42223,-11.20965 1.86228,-0.97447 3.32796,-3.55072 3.32796,-5.65289 V 92.269819 c 0,0 -20.34096,3.262546 -30.51287,2.455147 -13.96709,-1.108644 -26.83268,-10.191285 -40.84143,-9.938928 z"
       inkscape:export-filename="path3.svg" inkscape:export-xdpi="96" inkscape:export-ydpi="96"/></g>
</svg>
