<svg  width="623.64209" height="623.63574" viewBox="0 0 165.0053 165.00362" version="1.1" id="svg1" xmlns="http://www.w3.org/2000/svg">
  <defs id="defs1" />
  <g id="layer1" transform="translate(-65.996787,-22.476921)">
    <path
      id="path1"
      style="opacity:1;stroke:currentColor;stroke-width:0;stroke-linecap:round;stroke-linejoin:round;paint-order:stroke fill markers"
      d="m 221.62678,22.479248 c -0.30702,-0.0081 -0.6117,0.005 -0.91209,0.04031 -28.18466,3.314889 -48.65594,5.638717 -73.0927,5.643583 -21.48199,0.0043 -40.94603,-2.57257 -64.257054,-4.935616 -4.814656,-0.488063 -17.345194,4.932814 -17.345194,9.558073 0,0 4.251015,39.923763 4.247803,59.960681 -0.0032,19.946631 -4.247803,59.688861 -4.247803,59.688861 -0.403725,5.67288 4.578285,10.26552 10.265523,10.26552 l 47.377985,3.28352 v 11.52385 c 0,5.52478 4.44774,9.97251 9.97252,9.97251 h 29.72842 c 5.52478,0 9.97251,-4.44773 9.97251,-9.97251 v -11.58741 l 47.37799,-3.21996 c 5.67414,-0.38562 10.26552,-4.57829 10.26552,-10.26552 0,0 -4.56641,-38.87896 -4.60178,-58.408836 -0.0371,-20.471081 4.60178,-61.240706 4.60178,-61.240706 0.39953,-5.316795 -4.7482,-10.184449 -9.35343,-10.306347 z M 86.847928,40.21925 c 0,0 40.423382,5.637129 60.766832,5.663737 20.93096,0.02738 62.53727,-5.663737 62.53727,-5.663737 0,0 -1.0668,35.395947 -1.06195,53.099084 0.005,17.231246 1.06195,51.682636 1.06195,51.682636 0,0 -41.98057,4.99447 -63.06799,4.95577 -20.14648,-0.037 -60.236112,-4.95577 -60.236112,-4.95577 0,0 2.454146,-33.87238 2.477885,-50.83876 0.02518,-17.999875 -2.477885,-53.94296 -2.477885,-53.94296 z m 75.988642,25.146785 c -20.57571,-0.23867 -32.09397,4.152734 -46.25299,11.327991 -4.25868,2.158137 -10.97401,4.497414 -10.97401,9.204089 l 1.76992,21.007505 -1.76992,13.65653 c -0.60496,4.66762 3.82886,10.71976 8.49612,11.32747 0,0 13.1676,4.24537 32.62437,4.2478 20.07138,0.002 36.1642,-7.07967 36.1642,-7.07967 4.619,-0.90426 8.49612,-3.78894 8.49612,-8.4956 l -2.47788,-16.62379 2.47788,-18.040245 c 0.20464,-1.489834 2.15771,-20.175839 -28.55381,-20.53208 z m -2.20348,19.592086 a 16.912008,17.34565 0 0 1 16.91214,17.345709 16.912008,17.34565 0 0 1 -16.91214,17.34571 16.912008,17.34565 0 0 1 -16.91215,-17.34571 16.912008,17.34565 0 0 1 16.91215,-17.345709 z" />
  </g>
</svg>
