<?xml version="1.0" standalone="no"?>
<!DOCTYPE svg PUBLIC "-//W3C//DTD SVG 20010904//EN" "http://www.w3.org/TR/2001/REC-SVG-20010904/DTD/svg10.dtd">
<!-- Created using Krita: http://krita.org -->
<svg xmlns="http://www.w3.org/2000/svg"
    xmlns:xlink="http://www.w3.org/1999/xlink"
    xmlns:krita="http://krita.org/namespaces/svg/krita"
    xmlns:sodipodi="http://sodipodi.sourceforge.net/DTD/sodipodi-0.dtd"
    width="240pt"
    height="240pt"
    viewBox="0 0 240 240">
<defs/>
<g id="group0" transform="matrix(1.04997353196203 0 0 1.04997353196203 8.39736023349698 4.99494627487567)" fill="none">
  <rect id="shape0" transform="translate(91.6905942439994, 53.3372373477064)" fill="none" width="91.2" height="76.8"/>
  <path id="shape1" fill="#004661" fill-rule="evenodd" d="M8.95093 0.0315274C41.5282 0.182205 73.0333 5.41122 105.611 5.33724C141.334 5.25611 178.13 -0.131294 213.853 0.00244941C216.172 0.0111316 217.449 0.732483 218.792 1.59421C219.539 2.8438 220.573 4.0088 220.457 6.10931C218.513 41.3207 217.187 97.467 220.811 173.334C216.796 173.334 210.105 173.661 200.738 174.314C197.978 121.882 200.738 71.6163 200.738 20.2673C165.929 20.7378 140.994 24.5967 105.611 24.5372C80.5659 24.4951 45.4941 20.9229 19.2106 19.7372C20.2906 69.0462 22.9633 122.965 20.0833 174.314L0.0105942 174.314C3.76627 119.103 5.56656 65.8003 0.0105942 9.65946C-0.290436 7.58858 5.93269 1.3548 4.81059 2.57285"/>
  <path id="shape2" transform="translate(-9.58940575600059, -111.47586883327)" fill="#004661" fill-rule="evenodd" d="M230.4 284.425L230.363 283.581L230.252 282.742L230.068 281.909L229.812 281.082L229.485 280.261L229.088 279.447L228.621 278.639L228.087 277.838L227.484 277.044L226.815 276.258L226.081 275.48L225.282 274.709L224.625 274.129L224.419 274.311L223.493 275.065L222.505 275.81L221.456 276.545L220.347 277.272L219.179 277.989L217.952 278.696L216.668 279.393L215.327 280.079L213.931 280.755L212.48 281.42L210.975 282.074L209.417 282.716L207.807 283.347L206.146 283.965L204.435 284.572L202.675 285.166L200.866 285.747L199.01 286.315L197.107 286.869L195.159 287.411L193.166 287.938L191.129 288.451L189.05 288.95L186.928 289.434L184.765 289.904L182.562 290.358L180.32 290.797L178.039 291.22L175.721 291.627L173.366 292.018L170.976 292.392L168.551 292.75L166.092 293.09L163.601 293.414L161.077 293.72L158.522 294.008L155.937 294.278L153.323 294.529L150.68 294.762L148.01 294.976L145.314 295.171L142.591 295.347L139.845 295.503L137.074 295.639L134.28 295.755L131.464 295.85L128.628 295.925L125.771 295.978L122.895 296.011L120 296.021L117.105 296.011L114.229 295.978L111.372 295.925L108.536 295.85L105.72 295.755L102.926 295.639L100.155 295.503L97.4085 295.347L94.6863 295.171L91.9897 294.976L89.3197 294.762L86.6771 294.529L84.0628 294.278L81.4779 294.008L78.9231 293.72L76.3994 293.414L73.9077 293.09L71.4489 292.75L69.0239 292.392L66.6336 292.018L64.279 291.627L61.9609 291.22L59.6803 290.797L57.438 290.358L55.235 289.904L53.0722 289.434L50.9504 288.95L48.8707 288.451L46.8338 287.938L44.8408 287.411L42.8925 286.869L40.9898 286.315L39.1337 285.747L37.325 285.166L35.5647 284.572L33.8536 283.965L32.1928 283.347L30.583 282.716L29.0252 282.074L27.5203 281.42L26.0692 280.755L24.6728 280.079L23.3321 279.393L22.0479 278.696L20.8212 277.989L19.6528 277.272L18.5437 276.545L17.4948 275.81L16.5069 275.065L15.581 274.311L15.375 274.129L14.7181 274.709L13.919 275.48L13.1845 276.258L12.5157 277.044L11.9135 277.838L11.3787 278.639L10.9122 279.447L10.5151 280.261L10.1881 281.082L9.93215 281.909L9.74823 282.742L9.63721 283.581L9.6 284.425L9.63721 285.269L9.74823 286.107L9.93215 286.94L10.1881 287.767L10.5151 288.588L10.9122 289.403L11.3787 290.211L11.9135 291.012L12.5157 291.805L13.1845 292.592L13.919 293.37L14.7181 294.141L15.581 294.903L16.5069 295.656L17.4948 296.401L18.5437 297.137L19.6528 297.864L20.8212 298.58L22.0479 299.288L23.3321 299.984L24.6728 300.671L26.0692 301.347L27.5203 302.012L29.0252 302.665L30.583 303.308L32.1928 303.938L33.8536 304.557L35.5647 305.163L37.325 305.757L39.1337 306.338L40.9898 306.906L42.8925 307.461L44.8408 308.002L46.8338 308.53L48.8707 309.043L50.9504 309.542L53.0722 310.026L55.235 310.495L57.438 310.95L59.6803 311.388L61.9609 311.811L64.279 312.218L66.6336 312.609L69.0239 312.984L71.4489 313.341L73.9077 313.682L76.3994 314.005L78.9231 314.311L81.4779 314.599L84.0628 314.869L86.6771 315.121L89.3197 315.354L91.9897 315.568L94.6863 315.763L97.4085 315.939L100.155 316.095L102.926 316.231L105.72 316.346L108.536 316.442L111.372 316.516L114.229 316.57L117.105 316.602L120 316.613L122.895 316.602L125.771 316.57L128.628 316.516L131.464 316.442L134.28 316.346L137.074 316.231L139.845 316.095L142.591 315.939L145.314 315.763L148.01 315.568L150.68 315.354L153.323 315.121L155.937 314.869L158.522 314.599L161.077 314.311L163.601 314.005L166.092 313.682L168.551 313.341L170.976 312.984L173.366 312.609L175.721 312.218L178.039 311.811L180.32 311.388L182.562 310.95L184.765 310.495L186.928 310.026L189.05 309.542L191.129 309.043L193.166 308.53L195.159 308.002L197.107 307.461L199.01 306.906L200.866 306.338L202.675 305.757L204.435 305.163L206.146 304.557L207.807 303.938L209.417 303.308L210.975 302.665L212.48 302.012L213.931 301.347L215.327 300.671L216.668 299.984L217.952 299.288L219.179 298.58L220.347 297.864L221.456 297.137L222.505 296.401L223.493 295.656L224.419 294.903L225.282 294.141L226.081 293.37L226.815 292.592L227.484 291.805L228.087 291.012L228.621 290.211L229.088 289.403L229.485 288.588L229.812 287.767L230.068 286.94L230.252 286.107L230.363 285.269L230.4 284.425"/>
  <path id="shape3" transform="translate(33.6105942439994, 81.7772373486399)" fill="#004661" fill-rule="evenodd" stroke="#0a0408" stroke-width="1" stroke-linecap="square" stroke-linejoin="bevel" d="M0 0L9.89183 0L9.80218 0.159109L9.69023 0.437557L9.62265 0.717882L9.6 0.999997L9.62265 1.28211L9.69023 1.56244L9.80218 1.84089L9.95796 2.11737L10.157 2.39179L10.3988 2.66407L10.6827 2.93412L11.0082 3.20185L11.3748 3.46717L11.7819 3.72999L12.2289 3.99022L12.7154 4.24778L13.2406 4.50257L13.8042 4.75451L14.4055 5.00351L15.044 5.24948L15.7191 5.49233L16.4303 5.73197L17.177 5.96832L17.9587 6.20129L18.7748 6.43078L19.6247 6.65671L20.508 6.87899L21.424 7.09753L22.3722 7.31224L23.3521 7.52304L24.3631 7.72983L25.4046 7.93253L26.4761 8.13105L27.577 8.3253L28.7069 8.51519L29.865 8.70063L31.0509 8.88153L32.2641 9.05781L33.5039 9.22938L34.7698 9.39615L36.0613 9.55802L37.3778 9.71492L38.7188 9.86675L40.0837 10.0134L41.4719 10.1548L42.8829 10.2909L44.3161 10.4216L45.7711 10.5468L47.2471 10.6663L48.7438 10.7802L50.2605 10.8883L51.7967 10.9905L53.3517 11.0868L54.9252 11.1771L56.5165 11.2612L58.125 11.3391L59.7503 11.4106L61.3917 11.4758L63.0487 11.5345L64.7207 11.5866L66.4073 11.6321L68.1078 11.6708L69.8216 11.7027L71.5484 11.7276L73.2874 11.7456L75.0381 11.7564L76.8 11.76L78.5619 11.7564L80.3126 11.7456L82.0516 11.7276L83.7784 11.7027L85.4922 11.6708L87.1927 11.6321L88.8793 11.5866L90.5513 11.5345L92.2083 11.4758L93.8497 11.4106L95.475 11.3391L97.0835 11.2612L98.6748 11.1771L100.248 11.0868L101.803 10.9905L103.34 10.8883L104.856 10.7802L106.353 10.6663L107.829 10.5468L109.284 10.4216L110.717 10.2909L112.128 10.1548L113.516 10.0134L114.881 9.86675L116.222 9.71492L117.539 9.55802L118.83 9.39615L120.096 9.22938L121.336 9.05781L122.549 8.88153L123.735 8.70063L124.893 8.51519L126.023 8.3253L127.124 8.13105L128.195 7.93253L129.237 7.72983L130.248 7.52304L131.228 7.31224L132.176 7.09753L133.092 6.87899L133.975 6.65671L134.825 6.43078L135.641 6.20129L136.423 5.96832L137.17 5.73197L137.881 5.49233L138.556 5.24948L139.194 5.00351L139.796 4.75451L140.359 4.50257L140.885 4.24778L141.371 3.99022L141.818 3.72999L142.225 3.46717L142.592 3.20185L142.917 2.93412L143.201 2.66407L143.443 2.39179L143.642 2.11737L143.798 1.84089L143.91 1.56244L143.977 1.28211L144 0.999997L143.977 0.717882L143.91 0.437557L143.798 0.159109L143.708 0L153.6 0C153.673 25.5895 150.523 51.7082 153.6 76.8L0 76.8C5.16 52.28 0 25.6 0 0"/>
  <path id="shape4" transform="translate(33.6104691878457, 145.579543332066)" sodipodi:type="arc" sodipodi:rx="76.8" sodipodi:ry="14.1188127126892" sodipodi:cx="76.8001250561537" sodipodi:cy="14.1188632758234" sodipodi:start="6.28318530717959" sodipodi:end="6.25805580631513" sodipodi:open="true" d="M153.576 13.7641C152.515 6.00356 117.572 -0.143743 75.3528 0.00255809C33.1331 0.148859 -0.524373 6.53388 0.0061873 14.2963C0.536747 22.0586 35.0563 28.2862 77.2826 28.2374C119.509 28.1886 153.6 21.8819 153.6 14.1189" fill="#004661" fill-rule="evenodd"/>
  <path id="shape5" transform="translate(33.6105968759477, 74.0972361260685)" fill="#004661" fill-rule="evenodd" d="M153.6 8.08544L153.574 7.87345L153.497 7.6628L153.369 7.45357L153.191 7.24581L152.963 7.0396L152.687 6.835L152.363 6.63207L151.991 6.43089L151.572 6.23152L151.106 6.03403L150.596 5.83848L150.04 5.64495L149.439 5.45349L148.795 5.26417L148.108 5.07706L147.378 4.89223L146.607 4.70975L145.794 4.52967L144.941 4.35207L144.047 4.17701L143.115 4.00456L142.143 3.83479L141.134 3.66776L140.087 3.50355L139.003 3.3422L137.883 3.1838L136.728 3.02841L135.538 2.87609L134.313 2.72692L133.055 2.58096L131.764 2.43827L130.44 2.29892L129.085 2.16298L127.698 2.03052L126.281 1.90159L124.834 1.77628L123.358 1.65464L121.854 1.53674L120.321 1.42265L118.762 1.31244L117.175 1.20617L115.562 1.1039L113.924 1.00571L112.262 0.911657L110.575 0.821814L108.864 0.736244L107.131 0.655015L105.375 0.578194L103.598 0.505846L101.8 0.438038L99.9812 0.374837L98.1428 0.31631L96.2854 0.262523L94.4095 0.213542L92.5158 0.169435L90.6049 0.130267L88.6774 0.096106L86.734 0.0670177L84.7753 0.0430689L82.8019 0.0243261L80.8144 0.010856L78.8136 0.00272509L76.8 0L74.7864 0.00272509L72.7856 0.010856L70.7981 0.0243261L68.8247 0.0430689L66.866 0.0670177L64.9226 0.096106L62.9951 0.130267L61.0842 0.169435L59.1905 0.213542L57.3146 0.262523L55.4572 0.31631L53.6188 0.374837L51.8002 0.438038L50.002 0.505846L48.2247 0.578194L46.4691 0.655015L44.7358 0.736244L43.0253 0.821814L41.3384 0.911657L39.6756 1.00571L38.0376 1.1039L36.425 1.20617L34.8385 1.31244L33.2786 1.42265L31.7461 1.53674L30.2415 1.65464L28.7655 1.77628L27.3187 1.90159L25.9018 2.03052L24.5153 2.16298L23.16 2.29892L21.8364 2.43827L20.5452 2.58096L19.287 2.72692L18.0624 2.87609L16.8721 3.02841L15.7167 3.1838L14.5968 3.3422L13.5132 3.50355L12.4663 3.66776L11.4568 3.83479L10.4855 4.00456L9.55277 4.17701L8.65942 4.35207L7.80604 4.52967L6.99325 4.70975L6.2217 4.89223L5.492 5.07706L4.8048 5.26417L4.16073 5.45349L3.56041 5.64495L3.00449 5.83848L2.49359 6.03403L2.02834 6.23152L1.60939 6.43089L1.23735 6.63207L0.912868 6.835L0.636571 7.0396L0.409092 7.24581L0.231063 7.45357L0.103116 7.6628L0.0258844 7.87345L0 8.08544L0.0258844 8.29743L0.103116 8.50808L0.231063 8.71731L0.409092 8.92507L0.636571 9.13128L0.912868 9.33589L1.23735 9.53881L1.60939 9.73999L2.02834 9.93936L2.49359 10.1369L3.00449 10.3324L3.56041 10.5259L4.16073 10.7174L4.8048 10.9067L5.492 11.0938L6.2217 11.2787L6.99325 11.4611L7.80604 11.6412L8.65942 11.8188L9.55277 11.9939L10.4855 12.1663L11.4568 12.3361L12.4663 12.5031L13.5132 12.6673L14.5968 12.8287L15.7167 12.9871L16.8721 13.1425L18.0624 13.2948L19.287 13.444L20.5452 13.5899L21.8364 13.7326L23.16 13.872L24.5153 14.0079L25.9018 14.1404L27.3187 14.2693L28.7655 14.3946L30.2415 14.5162L31.7461 14.6341L33.2786 14.7482L34.8385 14.8584L36.425 14.9647L38.0376 15.067L39.6756 15.1652L41.3384 15.2592L43.0253 15.3491L44.7358 15.4346L46.4691 15.5159L48.2247 15.5927L50.002 15.665L51.8002 15.7328L53.6188 15.796L55.4572 15.8546L57.3146 15.9084L59.1905 15.9573L61.0842 16.0014L62.9951 16.0406L64.9226 16.0748L66.866 16.1039L68.8247 16.1278L70.7981 16.1466L72.7856 16.16L74.7864 16.1682L76.8 16.1709L78.8136 16.1682L80.8144 16.16L82.8019 16.1466L84.7753 16.1278L86.734 16.1039L88.6774 16.0748L90.6049 16.0406L92.5158 16.0014L94.4095 15.9573L96.2854 15.9084L98.1428 15.8546L99.9812 15.796L101.8 15.7328L103.598 15.665L105.375 15.5927L107.131 15.5159L108.864 15.4346L110.575 15.3491L112.262 15.2592L113.924 15.1652L115.562 15.067L117.175 14.9647L118.762 14.8584L120.321 14.7482L121.854 14.6341L123.358 14.5162L124.834 14.3946L126.281 14.2693L127.698 14.1404L129.085 14.0079L130.44 13.872L131.764 13.7326L133.055 13.5899L134.313 13.444L135.538 13.2948L136.728 13.1425L137.883 12.9871L139.003 12.8287L140.087 12.6673L141.134 12.5031L142.143 12.3361L143.115 12.1663L144.047 11.9939L144.941 11.8188L145.794 11.6412L146.607 11.4611L147.378 11.2787L148.108 11.0938L148.795 10.9067L149.439 10.7174L150.04 10.5259L150.596 10.3324L151.106 10.1369L151.572 9.93936L151.991 9.73999L152.363 9.53881L152.687 9.33589L152.963 9.13128L153.191 8.92507L153.369 8.71731L153.497 8.50808L153.574 8.29743L153.6 8.08544M144 9.47062L143.977 9.32327L143.91 9.17685L143.798 9.03141L143.642 8.887L143.443 8.74367L143.201 8.60145L142.917 8.4604L142.592 8.32056L142.225 8.18198L141.818 8.04471L141.371 7.90878L140.885 7.77426L140.359 7.64117L139.796 7.50958L139.194 7.37953L138.556 7.25105L137.881 7.12421L137.17 6.99904L136.423 6.87559L135.641 6.75391L134.825 6.63404L133.975 6.51604L133.092 6.39994L132.176 6.28579L131.228 6.17364L130.248 6.06354L129.237 5.95553L128.195 5.84965L127.124 5.74596L126.023 5.64451L124.893 5.54532L123.735 5.44846L122.549 5.35397L121.336 5.2619L120.096 5.17229L118.83 5.08518L117.539 5.00063L116.222 4.91868L114.881 4.83938L113.516 4.76277L112.128 4.6889L110.717 4.61782L109.284 4.54957L107.829 4.48419L106.353 4.42174L104.856 4.36226L103.34 4.3058L101.803 4.2524L100.248 4.20212L98.6748 4.15498L97.0835 4.11105L95.475 4.07037L93.8497 4.03298L92.2083 3.99894L90.5513 3.96828L88.8793 3.94105L87.1927 3.91731L85.4922 3.89709L83.7784 3.88044L82.0516 3.86742L80.3126 3.85805L78.5619 3.8524L76.8 3.85051L75.0381 3.8524L73.2874 3.85805L71.5484 3.86742L69.8216 3.88044L68.1078 3.89709L66.4073 3.91731L64.7207 3.94105L63.0487 3.96828L61.3917 3.99894L59.7503 4.03298L58.125 4.07037L56.5165 4.11105L54.9252 4.15498L53.3517 4.20212L51.7967 4.2524L50.2605 4.3058L48.7438 4.36226L47.2471 4.42174L45.7711 4.48419L44.3161 4.54957L42.8829 4.61782L41.4719 4.6889L40.0836 4.76277L38.7188 4.83938L37.3778 4.91868L36.0613 5.00063L34.7698 5.08518L33.5039 5.17229L32.2641 5.2619L31.0509 5.35397L29.865 5.44846L28.7069 5.54532L27.577 5.64451L26.4761 5.74596L25.4046 5.84965L24.3631 5.95553L23.3521 6.06354L22.3722 6.17364L21.424 6.28579L20.508 6.39994L19.6247 6.51604L18.7748 6.63404L17.9587 6.75391L17.177 6.87559L16.4303 6.99904L15.7191 7.12421L15.044 7.25105L14.4055 7.37953L13.8042 7.50958L13.2406 7.64117L12.7154 7.77426L12.2289 7.90878L11.7819 8.04471L11.3748 8.18198L11.0082 8.32056L10.6827 8.4604L10.3988 8.60145L10.157 8.74367L9.95795 8.887L9.80218 9.03141L9.69022 9.17685L9.62265 9.32327L9.6 9.47062L9.62265 9.61797L9.69022 9.76439L9.80218 9.90983L9.95795 10.0542L10.157 10.1976L10.3988 10.3398L10.6827 10.4808L11.0082 10.6207L11.3748 10.7593L11.7819 10.8965L12.2289 11.0325L12.7154 11.167L13.2406 11.3001L13.8042 11.4317L14.4055 11.5617L15.044 11.6902L15.7191 11.817L16.4303 11.9422L17.177 12.0657L17.9587 12.1873L18.7748 12.3072L19.6247 12.4252L20.508 12.5413L21.424 12.6555L22.3722 12.7676L23.3521 12.8777L24.3631 12.9857L25.4046 13.0916L26.4761 13.1953L27.577 13.2967L28.7069 13.3959L29.865 13.4928L31.0509 13.5873L32.2641 13.6793L33.5039 13.769L34.7698 13.8561L36.0613 13.9406L37.3778 14.0226L38.7188 14.1019L40.0836 14.1785L41.4719 14.2523L42.8829 14.3234L44.3161 14.3917L45.7711 14.4571L47.2471 14.5195L48.7438 14.579L50.2605 14.6354L51.7967 14.6888L53.3517 14.7391L54.9252 14.7863L56.5165 14.8302L58.125 14.8709L59.7503 14.9083L61.3917 14.9423L63.0487 14.973L64.7207 15.0002L66.4073 15.0239L68.1078 15.0442L69.8216 15.0608L71.5484 15.0738L73.2874 15.0832L75.0381 15.0888L76.8 15.0907L78.5619 15.0888L80.3126 15.0832L82.0516 15.0738L83.7784 15.0608L85.4922 15.0442L87.1927 15.0239L88.8793 15.0002L90.5513 14.973L92.2083 14.9423L93.8497 14.9083L95.475 14.8709L97.0835 14.8302L98.6748 14.7863L100.248 14.7391L101.803 14.6888L103.34 14.6354L104.856 14.579L106.353 14.5195L107.829 14.4571L109.284 14.3917L110.717 14.3234L112.128 14.2523L113.516 14.1785L114.881 14.1019L116.222 14.0226L117.539 13.9406L118.83 13.8561L120.096 13.769L121.336 13.6793L122.549 13.5873L123.735 13.4928L124.893 13.3959L126.023 13.2967L127.124 13.1953L128.195 13.0916L129.237 12.9857L130.248 12.8777L131.228 12.7676L132.176 12.6555L133.092 12.5413L133.975 12.4252L134.825 12.3072L135.641 12.1873L136.423 12.0657L137.17 11.9422L137.881 11.817L138.556 11.6902L139.194 11.5617L139.796 11.4317L140.359 11.3001L140.885 11.167L141.371 11.0325L141.818 10.8965L142.225 10.7593L142.592 10.6207L142.917 10.4808L143.201 10.3398L143.443 10.1976L143.642 10.0542L143.798 9.90983L143.91 9.76439L143.977 9.61797L144 9.47062"/>
  <rect id="shape6" transform="translate(94.8105942439994, 197.097237351067)" fill="#004661" fill-rule="evenodd" width="40.8" height="29.2799999932785" rx="3.85071431133298" ry="3.85071431133298"/>
  <path id="shape7" transform="translate(42.730597754292, 91.7372207400596)" fill="#0a0a00" fill-rule="evenodd" stroke="#004661" stroke-width="14.4" stroke-linecap="square" stroke-linejoin="miter" stroke-miterlimit="2" d="M0 0C21.7815 4.92265 39.9326 5.27248 64.44 5.28C84.6366 5.28619 113.6 4.2629 135.36 -1.42109e-14"/>
 </g>
</svg>
